<?xml version="1.0" encoding="UTF-8"?>
<svg width="16px" height="16px" viewBox="0 0 16 16" version="1.1" xmlns="http://www.w3.org/2000/svg" xmlns:xlink="http://www.w3.org/1999/xlink">
    <title>9508577D-F397-45DE-A57F-F0AC9DE42F44</title>
    <defs>
        <polygon id="path-1" points="0 0.000120754717 15.8924075 0.000120754717 15.8924075 10.9703849 0 10.9703849"></polygon>
    </defs>
    <g id="Guidelines" stroke="none" stroke-width="1" fill="none" fill-rule="evenodd">
        <g id="04_Guidelines_Iconography" transform="translate(-1037.000000, -1257.000000)">
            <g id="icon-email" transform="translate(980.000000, 1200.000000)">
                <g id="01-Atoms-/-01-Icons-/-08-Contact-/-25-Email" transform="translate(57.000000, 57.000000)">
                    <g id="il" transform="translate(0.000000, 2.000000)">
                        <mask id="mask-2" fill="white">
                            <use xlink:href="#path-1"></use>
                        </mask>
                        <g id="Clip-2"></g>
                        <path d="M0.558369811,10.4120151 L0.558369811,0.943033962 L7.75082264,7.97941132 C7.76833208,7.99661887 7.78976604,8.00658113 7.80999245,8.01805283 C7.82086038,8.02439245 7.82991698,8.03375094 7.84108679,8.03858113 C7.87459623,8.05216604 7.91052075,8.05910943 7.9461434,8.05910943 C7.98176604,8.05910943 8.01738868,8.05216604 8.05089811,8.03858113 C8.06116226,8.03435472 8.06901132,8.02590189 8.07836981,8.02046792 C8.10040755,8.00869434 8.12274717,7.99782642 8.14146415,7.97941132 L15.333917,0.932166038 L15.333917,10.4120151 L0.558369811,10.4120151 Z M7.94584151,7.38892075 L0.963803774,0.558430189 L14.9173132,0.558430189 L7.94584151,7.38892075 Z M15.6047094,-6.03773585e-05 L15.6038038,-6.03773585e-05 L0.276709434,-6.03773585e-05 L0.275501887,-6.03773585e-05 L-0.000120754717,-6.03773585e-05 L-0.000120754717,0.281901887 L-0.000120754717,0.28250566 L-0.000120754717,10.9705057 L15.8924075,10.9705057 L15.8924075,-6.03773585e-05 L15.6047094,-6.03773585e-05 Z" id="Fill-1" fill="#000000" mask="url(#mask-2)"></path>
                    </g>
                </g>
            </g>
        </g>
    </g>
</svg>